<?xml version="1.0" encoding="UTF-8"?><svg xmlns="http://www.w3.org/2000/svg" width="16px" height="16px" fill="none" stroke-width="1.5" viewBox="0 0 24 24" color="#000000"><path stroke="#000000" stroke-width="1.5" d="M3 7.4V3.6a.6.6 0 0 1 .6-.6h5.8a.6.6 0 0 1 .6.6v3.8a.6.6 0 0 1-.6.6H3.6a.6.6 0 0 1-.6-.6ZM14 20.4v-3.8a.6.6 0 0 1 .6-.6h5.8a.6.6 0 0 1 .6.6v3.8a.6.6 0 0 1-.6.6h-5.8a.6.6 0 0 1-.6-.6ZM14 12.4V3.6a.6.6 0 0 1 .6-.6h5.8a.6.6 0 0 1 .6.6v8.8a.6.6 0 0 1-.6.6h-5.8a.6.6 0 0 1-.6-.6ZM3 20.4v-8.8a.6.6 0 0 1 .6-.6h5.8a.6.6 0 0 1 .6.6v8.8a.6.6 0 0 1-.6.6H3.6a.6.6 0 0 1-.6-.6Z"></path></svg>